<svg width="512" height="512" version="1.1" viewBox="0 0 135.5 135.5" xmlns="http://www.w3.org/2000/svg" xmlns:cc="http://creativecommons.org/ns#" xmlns:dc="http://purl.org/dc/elements/1.1/" xmlns:rdf="http://www.w3.org/1999/02/22-rdf-syntax-ns#"><title>Haiyajan Logo - Haiya Dragon</title><metadata><rdf:RDF><cc:Work rdf:about=""><dc:format>image/svg+xml</dc:format><dc:type rdf:resource="http://purl.org/dc/dcmitype/StillImage"/><dc:title>Haiyajan Logo - Haiya Dragon</dc:title><cc:license rdf:resource="http://creativecommons.org/licenses/by-sa/4.0/"/><dc:creator><cc:Agent><dc:title>Cher, ko-fi.com/staticevent</dc:title></cc:Agent></dc:creator><dc:publisher><cc:Agent><dc:title>Mahyar Koshkouei &lt;mk@deltabeard.com&gt;</dc:title></cc:Agent></dc:publisher><dc:contributor><cc:Agent><dc:title>Raster to vector conversion by Mahyar Koshkouei.
Original drawing by Cher (ko-fi.com/staticevent).</dc:title></cc:Agent></dc:contributor></cc:Work><cc:License rdf:about="http://creativecommons.org/licenses/by-sa/4.0/"><cc:permits rdf:resource="http://creativecommons.org/ns#Reproduction"/><cc:permits rdf:resource="http://creativecommons.org/ns#Distribution"/><cc:requires rdf:resource="http://creativecommons.org/ns#Notice"/><cc:requires rdf:resource="http://creativecommons.org/ns#Attribution"/><cc:permits rdf:resource="http://creativecommons.org/ns#DerivativeWorks"/><cc:requires rdf:resource="http://creativecommons.org/ns#ShareAlike"/></cc:License></rdf:RDF></metadata><g><path transform="scale(.2646)" d="m218.9 251.5c-0.2274-0.0224-0.9482-0.0913-1.602-0.1532-7.498-0.7093-14.29-3.79-19.12-8.676-5.681-5.743-8.932-13.89-9.778-24.51l-0.1658-2.082 0.2328-0.8876c0.6106-2.327 1.676-4.968 2.896-7.178 7.051-12.77 23.36-22.19 41.28-23.86 2.133-0.1977 7.451-0.1672 9.457 0.0543 3.15 0.348 5.928 0.923 8.542 1.768 1.363 0.4406 1.549 0.5334 2.739 1.368 8.127 5.698 13.39 11.83 15.78 18.38 3.514 9.654 0.5866 20.04-8.201 29.08-4.159 4.281-9.106 7.81-15.08 10.76-6.245 3.082-12.56 4.965-19.27 5.743-1.314 0.1523-6.726 0.2857-7.7 0.1898z" fill="#47314b" stroke="#000" stroke-width=".378"/><path transform="scale(.2646)" d="m227.1 256.4c-5.146-0.107-6.494-0.294-10.86-1.507-15.12-4.204-27.87-13.41-34.4-24.84-0.6586-1.153-2.057-3.741-2.142-3.963-0.0238-0.0623 0.0857 5e-3 0.2433 0.15 0.1576 0.1448 0.3309 0.2453 0.3851 0.2234 0.0542-0.0219 0.8493-0.8419 1.767-1.822 0.9176-0.9802 2.598-2.733 3.734-3.896l2.066-2.114 0.0889 0.713c0.5157 4.136 0.9352 6.408 1.647 8.921 1.337 4.719 3.104 8.39 5.7 11.84 7.294 9.69 19.9 13.73 34.78 11.15 10.05-1.743 20.23-6.509 27.96-13.09 1.583-1.347 4.314-4.103 5.499-5.551 4.162-5.085 6.586-10.27 7.306-15.63 0.2116-1.575 0.2069-4.851-9e-3 -6.351-0.2209-1.535-0.7475-3.664-1.258-5.086-0.9725-2.709-3.029-6.254-5.158-8.889-2.413-2.987-6.343-6.591-9.974-9.147-0.7167-0.5045-1.133-0.8625-1.029-0.8845 0.0964-0.0203 0.9398 0.1157 1.874 0.3023 0.9344 0.1866 2.679 0.4925 3.877 0.6799 7.358 1.151 12.39 2.598 16.76 4.823 2.875 1.461 5.074 3.046 7.146 5.148 2.418 2.453 3.818 5.054 4.53 8.413 0.2873 1.355 0.3061 1.617 0.3081 4.291 2e-3 2.476-0.0364 3.125-0.2929 4.97-0.3806 2.737-0.9885 4.533-2.684 7.929-0.716 1.434-0.8502 1.638-3.901 5.935-1.41 1.986-1.972 2.864-1.921 2.999 0.1236 0.322-7.111 7.322-10.74 10.39-7.204 6.093-14.61 10.22-22.92 12.77-1.901 0.5838-3.461 0.8781-5.359 1.011-2.192 0.1539-8.467 0.2084-13.04 0.1133z" fill="#dbd08e" stroke="#000" stroke-width=".378"/><path d="m57.69 61.83c-4.324-0.8324-4.421-6.311-0.02238-7.538 0.3851-0.07532 1.168-0.07532 1.553 0 1.303 0.2548 2.341 1.033 2.897 2.172 0.6801 1.393 0.4121 3.04-0.679 4.171-0.5425 0.5623-1.184 0.9307-1.978 1.135-0.2785 0.07178-0.4167 0.08629-0.9179 0.09641-0.4276 0.0086-0.6624-0.0017-0.8524-0.03709z" fill="#320504"/></g><g opacity=".3484"><path d="m48.55 56.72c-0.2145 1.42-0.484 2.785-0.06983 4.836 5.309 4.262 5.438-0.9995 6.652-4.84 2.637 1.891 5.45 0.7997 7.451 1.653 6.441 2.747 7.729 1.636 9.134-2.915 3.601 1.176 4.495-0.01601 4.9-1.637-4.482-11.74-19.85-6.586-28.07 2.903z"/></g><g><g fill="none" stroke="#000"><g stroke-linejoin="round"><path d="m39.58 136.7c-2.689-6.049-2.611-12.3 1.428-19.05 3.853-7.08 7.937-10.75 12.11-16.22 3.579-7.422-1.203-12.63-5.526-12.84-16.91-0.09675-15.49-2.521-23.88-6.891l-3.677 0.1295c-1.633-3.354-6.647-5.076-7.659-8.843-5.022-18.69 14.75-20.36 21.34-20.33 1.586 0.0072 3.147-1.507 3.96-2.641"/><path d="m44.63 40.49c-4.372 4.777-6.615 9.89-3.781 15.18" style="mix-blend-mode:normal"/><path d="m33.71 52.61c-5.815-1.236-2.765-8.273-1.212-8.884 2.63-5.03 5.796-5.509 8.743-7.847 18.75-15.85 35.31-22.56 50.11-21.83" stroke-linecap="round"/><path d="m91.35 14.04c-14.52 9.751-18.55 15.51-20.65 20.53 16.83-8.774 33.67-17.47 53.61-12.58-13.11 7.754-26.89 14.22-36.17 29.35l9.146-2.069-1.683 3.157c15.28-2.779 12.6-4.814 21.24-7.366-4.13 3.058-24.06 14.27-7.257 23.57-8.759-0.5883-22.68 22.86 1.157 20.52-2.63 5.023-16.27 4.703-22.19 3.788-14.14 25.48 7.788 37.91 23.03 43.25" stroke-linecap="round"/><g><path d="m23.71 81.65c15.47-10.63 22.55-1.842 30.83-1.751 3.929 0.04276 8.533-6.563 12.3-5.472"/><path d="m55.33 79.85c0.3538 0.5212 0.6709 1.084 0.6586 2.02 1.841-1.197 2.952-2.693 3.706-4.335"/><path d="m47.91 56.17c0.6917-2.794 2.351-5.534 8.045-8.05"/><path d="m47.33 59.59c6.402-6.979 12.86-10.9 19.4-10.31"/><path d="m43.02 34.28c8.508-1.669 16.54-3.285 28.77-2.444"/><path d="m72.84 33.55c-2.057 11.09 4.866 15.21 12.34 18.9l2.961-1.103"/></g></g><g stroke-width=".2646px"><path d="m107.8 51.81c-17.45 3.054-58.11 18.71 1.239 16.5"/><path d="m107.2 68.99c-10.03 2.949-21.55 3.356-32.77-1.868-14.75 12.82 19.72 31.17 36.34 22.03"/><path d="m67.76 73.89c-0.06335 2.291-0.328 2.718-0.5706 3.349"/><path d="m47.94 88.56c11.66 0.25 16.37 7.699 26.34 7.276"/></g><g><path d="m74.27 95.84c3.664 5.946-8.604 16.47-6.879 22.42 2.477 8.53 7.52 7.276 11.75 17.81" stroke-linecap="round" stroke-width=".265" style="paint-order:stroke fill markers"/><path d="m88.56 92.95c-13.22-3.572-15.28-5.322-20.59-14.38l-13.85 8.616c9.68 26.04-17.47 15.01-13.5 48.88" stroke-width=".2646px"/><path d="m40.63 136.1h38.52" stroke-linecap="round" stroke-width=".265" style="paint-order:stroke fill markers"/></g></g><path transform="scale(.2646)" d="m154 512.3c-1.162-8.89-1.59-27.52-0.8069-35.07 1.55-14.96 4.396-25.39 9.804-35.95 5.275-10.3 11.12-17.37 25.57-30.97 4.602-4.329 9.554-9.203 11.01-10.83 9.739-10.93 13.43-20.19 13.44-33.7 3e-3 -7.17-1.085-14.47-3.382-22.7-0.4779-1.713-0.84-3.144-0.8046-3.179 0.1331-0.1331 8.743 3.104 12.25 4.608 2.011 0.8609 7.581 3.404 12.38 5.652 10.53 4.933 15.18 6.912 20.21 8.594 7.73 2.587 14.04 3.751 21.71 4.003l5.03 0.1654 0.7088 1.596c1.226 2.76 1.447 3.969 1.414 7.714-0.035 3.974-0.6267 6.773-2.544 12.03-1.553 4.261-6.402 13.63-12.33 23.82-8.407 14.46-11.58 21.02-13.3 27.53-0.5942 2.241-0.7425 3.473-0.7629 6.338-0.0233 3.279 0.0487 3.791 0.9209 6.545 2.707 8.55 6.135 14.97 11.24 21.05 1.115 1.328 5.23 5.682 9.145 9.675 3.914 3.993 7.988 8.348 9.052 9.679 4.335 5.42 8.68 12.49 11.7 19.04 1.509 3.269 2.434 5.4 2.434 5.607 0 0.0591-32.38 0.1075-71.96 0.1075h-71.96z" fill="#605675" stroke="#605675" stroke-width="1.89"/><path d="m79.15 136.1h31.96" fill="none" stroke="#000" stroke-width=".2646px"/><path transform="scale(.2646)" d="m299.1 512.4c-3.656-8.361-5.638-12.09-9.48-17.86-3.885-5.828-5.736-8.001-13.97-16.4-4.084-4.167-8.503-8.92-9.82-10.56-4.293-5.358-7.327-11.16-9.79-18.71-2.373-7.276-1.414-12.95 4.107-24.33 1.215-2.504 3.424-6.666 4.909-9.248 1.485-2.582 4.45-7.74 6.589-11.46 8.145-14.17 11.32-21.83 12.14-29.25 0.4812-4.373-0.4964-9.766-2.192-12.09-0.5458-0.7492-0.5727-0.7539-4.921-0.8584-12.66-0.3041-22.08-2.957-39.5-11.12-14.18-6.642-18.7-8.589-25.07-10.8-1.943-0.6746-3.623-1.327-3.735-1.451-0.4436-0.49-2.883-8.399-2.654-8.603 0.5005-0.4451 50.77-31.6 50.97-31.59 0.1159 5e-3 1.363 1.952 2.772 4.326 16.82 28.34 27.54 36 65.61 46.88l7.272 2.077-2.862 5.73c-6.067 12.15-10.06 23.5-12.23 34.76-2.135 11.1-2.146 23.7-0.0279 34.16 7.053 34.83 37.88 64.26 89.07 85.04 2.974 1.207 5.663 2.306 5.976 2.444 0.3287 0.1441-23.33 0.2576-56 0.2688l-56.57 0.0193z" fill="#474257" stroke="#474257" stroke-width="2"/><path d="m39.42 136.3 1.207-0.2006" fill="none" stroke="#000" stroke-width=".2646px"/><g><path transform="scale(.2646)" d="m150.1 512c-3.279-7.848-5.08-17.4-5.042-26.74 0.0619-14.93 4.176-27.12 15.54-46.05 7.271-12.11 11.67-17.9 34.1-44.88 7.465-8.982 8.625-10.81 10.68-16.86 5.172-15.2 1.355-29.97-10.13-39.18l-2.014-1.616 2.59 0.3682c3.758 0.5342 9.945 1.994 10.85 2.56 1.112 0.6931 3.976 12.93 4.744 20.27 1.238 11.82-1.194 22.43-7.246 31.6-1.949 2.953-7.527 8.974-17.84 19.26-9.44 9.413-16.21 16.67-18.25 19.57-8.742 12.42-13.51 25.41-15.74 42.88-0.9181 7.191-0.9484 20.68-0.0857 38.22 0.1463 2.973-1.036 3.307-2.162 0.6118z" fill="#c19dc6" stroke="#c19dc6" stroke-width="1.89"/><path transform="scale(.2646)" d="m345.5 350.3c-2.532-0.2723-6.935-0.594-9.784-0.715-3.572-0.1517-7.079-0.776-11.3-2.012-35.97-10.53-46.4-17.83-62.21-43.53-2.619-4.259-4.98-7.748-5.247-7.753-0.3837-8e-3 -29.96 18.21-49.69 30.61l-3.554 2.234 1.395 4.101c0.7672 2.256 1.331 4.159 1.252 4.23-0.0785 0.071-2.862-0.455-6.186-1.169-3.324-0.7139-7.726-1.591-9.784-1.949s-5.036-0.9025-6.618-1.209c-1.583-0.307-9.87-0.8301-18.42-1.163-28.91-1.125-38-3.255-52.81-12.38-3.875-2.387-9.561-5.826-12.63-7.641-3.073-1.815-5.598-3.449-5.611-3.631-0.03985-0.5536 9.715-6.206 15.48-8.968 13.17-6.312 23.36-8.543 36.87-8.071 9.642 0.3368 14 1.14 25.32 4.663 3.64 1.133 9.471 2.943 12.96 4.022 8.153 2.525 13.91 3.7 19.15 3.911l4.192 0.1687 0.5294 2.014c0.2912 1.108 0.6756 2.726 0.8543 3.597 0.5126 2.497 2.825 2.095 6.697-1.166 4.136-3.484 6.261-5.962 9.04-10.54 1.727-2.848 3.272-4.437 6.782-6.976 6.915-5.002 12.24-7.527 16.51-7.83 3.713-0.263 4.415-0.7024 4.43-2.774 0.019-2.651-6.968-2.182-13.43 0.9011-1.954 0.9324-7.681 4.57-12.73 8.084s-10.87 7.221-12.93 8.238c-3.452 1.699-4.205 1.847-9.236 1.823-6.457-0.031-10.37-0.8863-23.77-5.2-14.5-4.668-22.17-6.517-30.14-7.268-18.24-1.719-36.83 3.568-56.91 16.19l-5.568 3.499h-11.21l-2.65-3.413c-1.458-1.877-5.06-5.425-8.006-7.884-8.759-7.313-14.69-13.54-16.35-17.17-2.598-5.675-3.883-13.33-3.919-23.33-0.02735-7.641 0.1569-9.576 1.285-13.49 5.93-20.59 24.63-33.55 55.65-38.57 3.165-0.5127 10.96-1.259 17.31-1.659 11.04-0.694 11.69-0.8009 14.39-2.375 1.556-0.9067 4.323-3.192 6.148-5.077 2.69-2.78 3.189-3.584 2.637-4.249-1.83-2.205-2.551-2.006-6.401 1.769-2.276 2.232-4.747 4.044-6.344 4.654-2.48 0.9473-2.772 0.9476-5.608 6e-3 -7.643-2.539-10.49-10.42-7.174-19.83 1.928-5.465 3.505-7.308 9.96-11.64 22.27-14.95 46.86-26.88 67.88-32.93 18.21-5.243 32.3-7.112 65.31-8.672l7.326-0.346-1.715 3.624c-1.948 4.118-2.089 5.188-0.8186 6.242 0.7456 0.6188 1.34 0.5292 3.523-0.5314 1.444-0.7016 2.686-1.199 2.761-1.106 0.0742 0.0936-0.0878 2.372-0.3599 5.062-0.5555 5.493 0.14 14.22 1.576 19.77 2.541 9.826 8.655 18.91 18.1 26.91 3.016 2.552 12.04 9.106 13.36 9.286 3.236 0.4452-1.996 6.922-6.804 14.19-8.4 12.69-10.05 12.32-9.62 9.554 1.238-7.876-0.1512-13.67-4.347-18.14-5.301-5.644-12.91-8.897-25.06-10.71-4.635-0.6929-6.683-1.231-6.683-1.756 0-1.087-10.09-1.002-16.09 0.135-17.05 3.235-33.86 13.47-52.62 32.04-5.127 5.075-6.688 6.95-6.238 7.495 0.3302 0.3994 1.517 2.486 2.636 4.636 6.4 12.29 19.84 22.33 35.76 26.71 5.253 1.446 6.634 1.586 15.83 1.596 8.99 0.0104 10.53-0.1338 14.39-1.343 10.19-3.2 18.8-8.565 27.91-17.41 8.095-7.85 9.364-8.922 15.11-12.77 8.48-5.672 17.86-10.08 31.5-14.79 11.96-4.128 37.75-11.95 39.16-11.59 2.754 0.6913 25.9-4.01 38.25-8.097 4.099-1.357 11-4.331 16.04-6.914 4.868-2.493 15.1-8.092 15.2-7.992 0.0994 0.0994-8.114 5.409-10.71 7.35-2.593 1.941-6.84 5.369-9.437 7.618-4.689 4.06-4.762 4.097-10.36 5.246-13.63 2.798-35.62 9.011-50.69 14.32-42.16 14.86-61.62 29.18-51.61 37.97 2.525 2.217 4.269 3.117 8.923 4.604 13.35 4.265 46.01 5.115 83.94 5.419l18.09-0.4825-10.1 3.024s-3.595 1.247-14.46 3.091c-31.83 5.405-66.25 2.886-94.45-8.737-3.784-1.56-7.192-2.836-7.575-2.836-1.026 0-7.127 6.883-9.292 10.48-5.945 9.883-6.167 20.18-0.6738 31.31 10.01 20.27 40.42 39.86 74.49 47.99 12.93 3.083 18.48 3.724 32.23 3.719 13.51-5e-3 17.47-0.5002 27.7-3.464 2.733-0.792 9.538-3.364 9.682-3.22 0.1439 0.1439-6.1 3.222-8.435 4.346-5.279 2.539-14 4.672-23.76 5.81-8.146 0.95-29.44 1.073-37.41 0.216zm-90.08-59.92c0.9373-2.579 1.497-11.37 0.7235-11.37-0.329 0-0.7862 1.871-1.016 4.159-0.2297 2.287-0.774 5.169-1.209 6.403-0.9703 2.75-0.9708 2.675 0.0152 2.675 0.4438 0 1.113-0.8417 1.487-1.87zm-71.71-79.35c0.7213-3.607 4.14-9.454 7.792-13.33 3.955-4.196 10.58-8.898 16.91-12 3.578-1.755 3.882-2.042 3.556-3.364-0.6628-2.688-1.249-2.703-6.198-0.1592-13.82 7.102-21.64 14.92-25.38 25.37-0.828 2.314-1.506 4.303-1.506 4.42 0 0.2239 1.931 0.6571 3.525 0.7906 0.6146 0.0515 1.059-0.539 1.295-1.722zm-27.5-1.911c-1.873-4.152-3.337-8.281-3.799-10.72-2.316-12.21 2.853-26.22 14.95-40.51 1.596-1.886 2.902-3.604 2.902-3.819 0-0.2147-0.672-0.8307-1.493-1.369-1.438-0.9421-1.547-0.9285-2.938 0.3654-3.177 2.955-10.06 12.87-12.81 18.45-6.494 13.17-7.138 25.24-1.961 36.77l1.485 3.309 1.97-0.9397c1.084-0.5168 1.848-1.212 1.698-1.544z" fill="#8c7690" stroke="#8c7690" stroke-linecap="round" stroke-linejoin="round" stroke-width="1.89"/><path transform="scale(.2646)" d="m369.9 345.4c-32.19-2.35-65.85-16.2-85.51-35.18-8.776-8.473-13.71-16.45-15.55-25.16-0.5416-2.554-0.6203-8.046-0.1481-10.33 1.356-6.558 4.692-12.41 10.16-17.82l2.484-2.459 1.973 0.897c6.409 2.914 16.08 6.377 23.34 8.355 25.74 7.017 52.79 7.691 80.93 2.016 3.232-0.6518 7.493-1.802 7.58-1.802 0.0876 0-2.552 1.555-3.977 2.702-11.39 9.167-20.62 23.32-23.6 36.19-2.836 12.25 0.2641 22.63 8.648 28.94 4.794 3.61 10.95 5.917 18.98 7.12 1.746 0.2613 5.62 0.5012 9.668 0.5988l8.173-0.4326-4.2 1.594c-6.808 2.585-14.06 3.969-22.38 4.683-2.886 0.2476-13.64 0.3116-16.56 0.0985z" fill="#605675" stroke="#000" stroke-width=".378"/><path transform="scale(.2646)" d="m351.1 258.1c-29.59-1.206-46.67-4.286-53.3-9.613-6.385-5.13-0.2589-12.82 17.67-22.2 16.71-8.735 46.28-19.12 73.11-25.68 6.094-1.49 13.61-3.165 14.21-3.165 0.1564 0-0.6641 1.043-1.823 2.318-9.768 10.74-14.17 20.16-13.77 29.47 0.1681 3.932 0.9002 6.773 2.697 10.46 2.946 6.053 7.797 11.33 15.07 16.39l2.34 1.627-2.605 0.1744c-4.227 0.2831-47.68 0.4638-53.6 0.2228z" fill="#c19dc6" stroke="#000" stroke-width=".378"/><g stroke-linecap="round" stroke-linejoin="round"><path transform="scale(.2646)" d="m124.3 165.7c0.1891-0.4928 2.567-3.585 3.718-5.29 3.049-4.514 6.378-7.999 10.73-11.24 1.991-1.48 3.881-2.703 8.347-5.401 6.735-4.068 7.955-4.929 13.37-9.445l3.618-3.016 4.948-0.9692c14.14-2.769 23.98-4.474 33.25-5.76 17.54-2.432 34.35-3.424 51.39-3.031 3.957 0.0913 10.51 0.0891 10.54 0.1136 0.0723 0.0722-4.999 0.2879-9.511 0.5134-27.03 1.351-42.08 3.481-58.86 8.333-16.85 4.869-35.43 13.15-53.93 24.04-5.053 2.974-12.09 7.426-15.43 9.765-0.7683 0.5378-2.237 1.512-2.188 1.384z" fill="#464155" stroke="#464155" stroke-width=".378"/><path transform="scale(.2646)" d="m171.4 125.5c0.6614-0.6509 7.315-5.77 12.74-9.804 50.73-37.71 97.98-57.75 142.7-60.52 2.619-0.1624 6.348-0.2576 8.286-0.2116l3.524 0.08362-5.097 3.572c-30.07 21.07-49.2 38.9-60.43 56.33l-2.111 3.276-2.646-0.1557c-22.59-1.329-44.73-0.5006-66.28 2.48-8.219 1.137-26.13 4.193-30.42 5.189-0.5942 0.1381-0.6258 0.1112-0.2746-0.2345z" fill="#605675" stroke="#464155" stroke-width=".378"/><path transform="scale(.2646)" d="m316.7 193.3c-2.822-1.462-5.711-2.989-6.42-3.394l-1.29-0.7366 3.261-5.002c16.23-24.89 26.42-38.5 38.78-51.79 18.38-19.76 39.22-33.38 62.56-40.9 14.05-4.525 29.21-7.046 45.7-7.596 3.639-0.1214 5.711-0.1786 5.524 0.01971-0.1455 0.1547-5.061 2.773-10.15 5.71-28.98 16.71-38.11 22.21-50.14 30.23-26.21 17.47-45.98 35.56-61.74 56.49-3.133 4.159-7.334 10.2-9.53 13.7l-1.513 2.413-4.816 1.759c-2.649 0.9676-4.876 1.755-4.948 1.75-0.0728-5e-3 -2.441-1.205-5.263-2.667z" fill="#605675" stroke="#605675" stroke-width=".378"/><path transform="scale(.2646)" d="m279 232.7c0-0.0519 5.641-6.564 7.196-8.808 3.309-4.777 11.53-17.19 16.89-25.51l3.763-5.84 1.456 0.8047c4.962 2.743 12.66 6.599 13.36 6.693 0.6633 0.089 1.97-0.3128 6.598-2.028l5.771-2.139 14.79-3.339c8.135-1.837 15.72-4.026 15.77-3.973 0.0764 0.0764-1.628 4.518-4.652 9.571-0.6428 1.074-4.574 1.554-10.77 3.332-23.79 6.821-32.71 9.767-42.34 13.9-7.959 3.418-15.99 7.9-21.23 11.91-1.185 0.9059-6.594 5.653-6.594 5.426z" fill="#454054" stroke="#464155" stroke-width=".378"/><path transform="scale(.2646)" d="m305.8 187.3c-6.752-4.191-11.72-7.964-15.69-11.91-9.541-9.479-14.12-20.66-14.12-34.48 3.7e-4 -3.86 0.7147-11.38 1.2-12.63 0.4347-1.122 29.65-15.71 46.41-23.17 31.45-14 57.14-21.44 84.27-24.4 7.023-0.766 28.92-0.7691 35.9-5e-3 4.716 0.5168 12.53 1.671 16.58 2.448l1.977 0.3797-5.324 0.2025c-38.84 1.477-72.07 15.27-98.65 40.94-15.03 14.52-25.9 28.35-44.82 57.07-2.533 3.844-4.724 7.025-4.867 7.07-0.1438 0.0449-1.425-0.6408-2.847-1.524z" fill="#c19dc6" stroke="#c19dc6" stroke-width=".378"/></g><path transform="scale(.2646)" d="m279.8 231.3c0-0.0643 0.2922-0.4887 2.051-2.979 0.8565-1.213 1.82-2.602 2.141-3.087 0.9326-1.41 2.374-4.406 2.973-6.181 0.2471-0.7321 0.8011-2.906 0.8078-3.115 2e-3 -0.0699-0.1605 0.875-0.0976 1.03 0.1423 0.351 0.4321 0.6847 0.7237 0.8335 0.331 0.1688 0.9144 0.1681 1.304-2e-3 0.1582-0.069 0.5986-0.8565 0.6102-0.8449 0.0417 0.0417-4.223 6.608-4.949 7.573-0.7539 1.001-1.933 2.465-3.791 4.704-1.747 2.105-2.098 2.619-2.098 2.552z" fill="#8c7690" stroke="#8c7690" stroke-linecap="square" stroke-width=".378" style="paint-order:fill markers stroke"/></g></g><g display="none"><ellipse transform="rotate(-15)" cx="36.22" cy="71.25" rx="2.093" ry="2.72" fill="#fff"/><g fill="none" stroke="#000" stroke-width=".1"><path d="m47.33 59.59c2.185 5.699 9.635 9.428 16.39 8.373 9.368-1.461 21.55-17.31 3.01-18.69 17.22 11.4-16.12 28.07-16.99 7.86" display="inline" stroke-linejoin="round"/><path d="m49.75 57.14c1.515-6.529 11.02-10.1 16.99-7.86"/><path d="m47.33 59.59-0.7913-6.309 3.204 3.857"/></g></g></svg>
