<svg xmlns="http://www.w3.org/2000/svg" viewBox="0 0 24 24"><defs/><path d="M23.7.59c1.27 1.27-2.26 6.86-2.85 7.46-.6.6-2.12.04-3.39-1.23s-1.82-2.79-1.22-3.38c.6-.6 6.18-4.12 7.46-2.85zM5.9 1.93C3.96.83 1.2-.39.32.48c-.89.9.38 3.72 1.5 5.67.98-1.73 2.4-3.18 4.08-4.22zm15.9 5.68c.18.6.15 1.1-.14 1.4-.68.67-2.48-.08-4.16-1.62a9.61 9.61 0 01-1.7-2.14c-.6-1.02-.72-1.95-.28-2.39.24-.23.62-.3 1.08-.22.3-.19.66-.4 1.05-.62a11.54 11.54 0 00-5.33-1.3c-11.8 0-16 15.6-5.82 21.5 10.2 5.94 21.7-5.37 15.9-15.6l-.59 1z"/></svg>