<svg xmlns="http://www.w3.org/2000/svg" viewBox="0 0 135.47 135.47"><title>Haiyajan Logo - Haiya Dragon</title><defs><filter height="2.15" y="-.57" width="3.74" x="-1.37" id="a" color-interpolation-filters="sRGB"><feGaussianBlur stdDeviation=".87"/></filter></defs><rect ry="26.69" width="135.47" height="135.47" fill="#7abacf"/><g stroke="#000" stroke-width=".38"><path d="M57.92 66.54l-.43-.04a8.17 8.17 0 01-5.05-2.3c-1.5-1.52-2.37-3.68-2.6-6.48l-.04-.56.07-.23a8.7 8.7 0 01.76-1.9c1.87-3.38 6.18-5.87 10.93-6.31a18.8 18.8 0 012.5.01c.83.1 1.57.25 2.26.47.36.12.4.14.72.36 2.15 1.51 3.55 3.13 4.18 4.86.93 2.56.15 5.3-2.17 7.7a14.25 14.25 0 01-4 2.85 15.35 15.35 0 01-5.1 1.52c-.34.04-1.77.07-2.03.05z" fill="#47314b" stroke-width=".1"/><path d="M60.09 67.84a8.85 8.85 0 01-2.87-.4c-4-1.11-7.38-3.55-9.1-6.57-.18-.3-.55-1-.57-1.05 0-.02.02 0 .06.04l.1.06a80.78 80.78 0 011.46-1.51l.55-.56.02.19c.14 1.09.25 1.69.44 2.36a9.1 9.1 0 001.5 3.13c1.94 2.56 5.27 3.63 9.2 2.95a15.95 15.95 0 007.4-3.46c.42-.36 1.15-1.09 1.46-1.47a8.25 8.25 0 001.93-4.14c.06-.42.06-1.28 0-1.68-.06-.4-.2-.97-.33-1.35a9.02 9.02 0 00-1.37-2.35 14.2 14.2 0 00-2.63-2.42c-.2-.13-.3-.23-.28-.23l.5.08 1.02.18c1.95.3 3.28.69 4.44 1.27.76.4 1.34.81 1.9 1.37a4.27 4.27 0 011.27 3.36c0 .65 0 .83-.08 1.31-.1.73-.26 1.2-.7 2.1a10 10 0 01-1.04 1.57c-.37.53-.52.76-.5.8a29.4 29.4 0 01-2.85 2.74 16.89 16.89 0 01-6.06 3.38c-.5.16-.92.23-1.42.27-.58.04-2.24.06-3.45.03z" fill="#dbd08e" stroke-width=".1"/></g><path d="M57.7 61.83c-4.33-.84-4.43-6.32-.03-7.54a5.36 5.36 0 011.55 0 4 4 0 012.9 2.17c.68 1.4.41 3.04-.68 4.17a4.06 4.06 0 01-2.9 1.23c-.42.01-.66 0-.85-.03z" fill="#320504"/><path d="M48.55 56.72c-.21 1.42-.48 2.78-.07 4.83 5.3 4.26 5.44-1 6.65-4.84 2.64 1.9 5.45.8 7.45 1.66 6.44 2.74 7.73 1.63 9.14-2.92 3.6 1.18 4.5-.02 4.9-1.64-4.48-11.74-19.85-6.58-28.07 2.9z" opacity=".35"/><g filter="url(#a)"><ellipse cx="47.89" cy="80.84" rx=".81" ry="1.79" transform="matrix(.8911 -.45382 .1396 .9902 0 0)" fill="#fff"/></g><path d="M39.58 136.65c-2.69-6.05-2.61-12.3 1.43-19.05 3.85-7.08 7.93-10.75 12.1-16.22 3.59-7.42-1.2-12.63-5.52-12.84-16.9-.1-15.49-2.52-23.88-6.9l-3.67.14c-1.64-3.36-6.65-5.08-7.66-8.84C7.36 54.24 27.13 52.58 33.7 52.6c1.6 0 3.15-1.51 3.96-2.65" fill="none" stroke="#000" stroke-linejoin="round"/><path style="mix-blend-mode:normal" d="M44.63 40.49c-4.37 4.78-6.62 9.89-3.78 15.18" fill="none" stroke="#000" stroke-linejoin="round"/><path d="M33.71 52.6c-5.81-1.23-2.76-8.27-1.2-8.88 2.62-5.03 5.79-5.5 8.73-7.85C60 20.02 76.56 13.31 91.35 14.04M91.35 14.04C76.83 23.8 72.8 29.55 70.7 34.58 87.53 25.8 104.38 17.1 124.32 22c-13.11 7.75-26.9 14.22-36.18 29.35l9.15-2.07-1.68 3.15c15.28-2.77 12.6-4.8 21.24-7.36-4.13 3.06-24.06 14.27-7.26 23.57-8.75-.59-22.67 22.86 1.16 20.52-2.63 5.02-16.27 4.7-22.19 3.79-14.14 25.47 7.79 37.9 23.03 43.24" fill="none" stroke="#000" stroke-linecap="round" stroke-linejoin="round"/><path d="M23.71 81.65c15.47-10.63 22.55-1.84 30.83-1.75 3.93.04 8.53-6.57 12.3-5.47" fill="none" stroke="#000" stroke-linejoin="round"/><path d="M55.33 79.85c.35.52.67 1.08.66 2.02a9.9 9.9 0 003.7-4.34M47.91 56.17c.7-2.8 2.35-5.53 8.05-8.05M47.33 59.59c6.4-6.98 12.87-10.9 19.4-10.31M43.02 34.28c8.51-1.67 16.54-3.28 28.78-2.44M72.84 33.55c-2.06 11.09 4.86 15.21 12.34 18.9l2.96-1.1" fill="none" stroke="#000" stroke-linejoin="round"/><path d="M107.85 51.81c-17.45 3.06-58.11 18.72 1.24 16.5M107.18 69c-10.03 2.94-21.55 3.35-32.77-1.87-14.75 12.82 19.73 31.17 36.34 22.03M67.76 73.9c-.07 2.28-.33 2.71-.57 3.34M47.94 88.56c11.66.25 16.37 7.7 26.33 7.28" fill="none" stroke="#000" stroke-width=".26"/><path d="M74.27 95.84c3.67 5.94-8.6 16.47-6.88 22.41 2.48 8.53 7.52 7.28 11.76 17.81" fill="none" stroke="#000" stroke-width=".27" stroke-linecap="round" paint-order="stroke fill markers"/><path d="M88.56 92.95c-13.22-3.58-15.27-5.33-20.59-14.38l-13.84 8.61c9.68 26.04-17.47 15.01-13.5 48.88" fill="none" stroke="#000" stroke-width=".26"/><path d="M40.63 136.06h38.52" fill="none" stroke="#000" stroke-width=".27" stroke-linecap="round" paint-order="stroke fill markers"/><path d="M40.75 135.55c-.31-2.35-.42-7.28-.22-9.28.41-3.95 1.17-6.71 2.6-9.5 1.4-2.73 2.94-4.6 6.76-8.2a70.72 70.72 0 002.91-2.87c2.58-2.89 3.56-5.34 3.56-8.91a22 22 0 00-.9-6.01 9.27 9.27 0 01-.2-.84c.03-.04 2.3.82 3.23 1.22.54.22 2.01.9 3.28 1.5a48.42 48.42 0 005.35 2.27c2.04.68 3.71.99 5.74 1.05l1.33.05.2.42c.32.73.37 1.05.36 2.04 0 1.05-.16 1.8-.67 3.19-.4 1.12-1.7 3.6-3.26 6.3-2.22 3.82-3.06 5.56-3.52 7.28-.16.6-.2.92-.2 1.68 0 .87.01 1 .24 1.73a15.47 15.47 0 002.98 5.57c.3.35 1.38 1.5 2.42 2.56a56.02 56.02 0 012.4 2.56 25.85 25.85 0 013.73 6.52c0 .02-8.57.03-19.04.03H40.8z" fill="#605675" stroke="#605675" stroke-width=".5000562"/><path d="M79.15 136.06h31.95" fill="none" stroke="#000" stroke-width=".26"/><path d="M79.13 135.56c-.97-2.2-1.5-3.2-2.51-4.72-1.03-1.54-1.52-2.12-3.7-4.34a57.12 57.12 0 01-2.6-2.8 15.01 15.01 0 01-2.59-4.95c-.62-1.92-.37-3.42 1.1-6.43.31-.67.9-1.77 1.29-2.45l1.74-3.03c2.16-3.75 3-5.78 3.22-7.74.12-1.16-.14-2.58-.58-3.2-.15-.2-.16-.2-1.3-.23-3.36-.08-5.85-.78-10.46-2.94a63.13 63.13 0 00-6.63-2.86 8.3 8.3 0 01-1-.38 12.8 12.8 0 01-.7-2.28c.14-.12 13.44-8.36 13.5-8.36.02 0 .35.52.73 1.15 4.45 7.5 7.28 9.52 17.36 12.4l1.92.55-.76 1.52a35.48 35.48 0 00-3.23 9.2 24.4 24.4 0 000 9.03c1.86 9.22 10.01 17 23.56 22.5.78.32 1.5.6 1.58.65.09.03-6.17.06-14.82.07H79.28z" fill="#474257" stroke="#474257" stroke-width=".52916"/><path d="M39.42 136.26l1.21-.2" fill="none" stroke="#000" stroke-width=".26"/><path d="M39.7 135.46a18.63 18.63 0 01-1.33-7.08c.02-3.95 1.1-7.18 4.11-12.19 1.93-3.2 3.09-4.73 9.02-11.87 1.98-2.38 2.29-2.86 2.83-4.46 1.37-4.02.36-7.93-2.68-10.37l-.53-.42.68.1c1 .13 2.63.52 2.87.67.3.18 1.06 3.42 1.26 5.36.33 3.13-.32 5.94-1.92 8.36-.51.79-1.99 2.38-4.72 5.1a60.29 60.29 0 00-4.83 5.18c-2.31 3.28-3.57 6.72-4.16 11.34-.24 1.9-.25 5.47-.02 10.11.03.79-.28.88-.58.17z" fill="#c19dc6" stroke="#c19dc6" stroke-width=".5000562"/><path d="M91.4 92.7c-.66-.08-1.83-.16-2.58-.2a12.2 12.2 0 01-3-.53c-9.5-2.78-12.27-4.72-16.45-11.52a15.14 15.14 0 00-1.39-2.05c-.1 0-7.93 4.82-13.15 8.1l-.94.6.37 1.08c.2.6.36 1.1.33 1.12-.02.02-.75-.12-1.63-.31a85.72 85.72 0 00-4.34-.84 66.9 66.9 0 00-4.87-.3c-7.65-.3-10.06-.87-13.98-3.28-1.02-.63-2.53-1.54-3.34-2.02s-1.48-.91-1.48-.96c-.01-.15 2.57-1.64 4.1-2.38a19.07 19.07 0 019.75-2.13c2.55.09 3.7.3 6.7 1.23l3.42 1.07c2.16.66 3.68.98 5.07 1.03l1.11.05.14.53.23.95c.13.66.74.56 1.77-.3a9.83 9.83 0 002.39-2.8c.46-.75.87-1.17 1.8-1.84 1.82-1.33 3.23-2 4.36-2.07.98-.07 1.17-.19 1.17-.74.01-.7-1.84-.58-3.55.24a37 37 0 00-3.37 2.14 39.61 39.61 0 01-3.42 2.18c-.91.45-1.11.49-2.44.48-1.71 0-2.74-.23-6.29-1.37-3.84-1.24-5.86-1.73-7.97-1.93-4.83-.45-9.75.95-15.06 4.29l-1.47.92H20.42l-.7-.9c-.39-.5-1.34-1.44-2.12-2.09-2.32-1.93-3.89-3.58-4.33-4.54-.68-1.5-1.02-3.53-1.03-6.17-.01-2.02.04-2.54.34-3.57 1.57-5.45 6.51-8.88 14.72-10.2.84-.14 2.9-.34 4.58-.45 2.92-.18 3.1-.21 3.8-.63a9.57 9.57 0 001.63-1.34c.72-.74.85-.95.7-1.12-.48-.59-.67-.53-1.7.46a5.95 5.95 0 01-1.67 1.24c-.66.25-.73.25-1.48 0-2.03-.67-2.78-2.76-1.9-5.25.5-1.45.93-1.93 2.63-3.08 5.9-3.96 12.4-7.11 17.96-8.71 4.82-1.4 8.55-1.89 17.28-2.3l1.94-.09-.45.96c-.52 1.09-.55 1.37-.22 1.65.2.16.36.14.93-.14.39-.19.71-.32.73-.3a12 12 0 01-.1 1.35c-.14 1.45.05 3.76.43 5.23.67 2.6 2.29 5 4.79 7.12.8.67 3.18 2.4 3.53 2.46.86.11-.53 1.83-1.8 3.75-2.22 3.36-2.66 3.26-2.55 2.53.33-2.09-.04-3.62-1.15-4.8-1.4-1.5-3.41-2.36-6.63-2.84-1.22-.18-1.77-.32-1.77-.46 0-.29-2.67-.27-4.25.03-4.51.86-8.96 3.57-13.92 8.48-1.36 1.34-1.77 1.84-1.65 1.98.08.1.4.66.7 1.23 1.69 3.25 5.24 5.9 9.46 7.07 1.39.38 1.75.42 4.18.42 2.38 0 2.79-.04 3.8-.36 2.7-.84 4.98-2.26 7.4-4.6 2.14-2.08 2.47-2.36 4-3.38a34.72 34.72 0 018.33-3.91c3.16-1.1 9.99-3.16 10.36-3.07.73.18 6.85-1.06 10.12-2.14a35.7 35.7 0 004.24-1.83c1.3-.66 4-2.14 4.03-2.11.02.02-2.15 1.43-2.84 1.94-.68.51-1.8 1.42-2.5 2.02-1.23 1.07-1.25 1.08-2.73 1.38-3.61.74-9.43 2.39-13.41 3.8-11.16 3.92-16.3 7.71-13.66 10.04.67.59 1.13.82 2.36 1.22 3.53 1.13 12.17 1.35 22.2 1.43l4.8-.13-2.68.8s-.95.33-3.82.82c-8.42 1.43-17.53.77-25-2.3-1-.42-1.9-.76-2-.76-.27 0-1.88 1.82-2.45 2.77-1.58 2.62-1.64 5.34-.18 8.29 2.65 5.36 10.7 10.54 19.7 12.7 3.43.8 4.9.98 8.53.98 3.58 0 4.63-.14 7.33-.92.73-.2 2.53-.89 2.56-.85.04.04-1.61.85-2.23 1.15-1.4.67-3.7 1.23-6.28 1.54-2.16.25-7.8.28-9.9.05zM67.58 76.83c.25-.68.4-3 .2-3-.1 0-.21.49-.27 1.1-.06.6-.2 1.36-.32 1.69-.26.72-.26.7 0 .7.12 0 .3-.22.4-.49zm-18.97-21c.19-.95 1.1-2.5 2.06-3.52a16.82 16.82 0 014.48-3.18c.94-.46 1.02-.54.94-.89-.18-.7-.33-.71-1.64-.04-3.66 1.88-5.73 3.95-6.72 6.71-.22.61-.4 1.14-.4 1.17 0 .06.51.18.94.21.16.01.28-.14.34-.46zm-7.28-.5c-.5-1.1-.88-2.2-1-2.84-.62-3.23.75-6.93 3.95-10.71.42-.5.77-.96.77-1.01 0-.06-.18-.22-.4-.37-.38-.25-.4-.24-.77.1-.84.78-2.66 3.4-3.4 4.88-1.71 3.49-1.88 6.68-.51 9.73l.4.88.51-.25c.29-.14.5-.32.45-.41z" fill="#8c7690" stroke="#8c7690" stroke-width=".5000562" stroke-linecap="round" stroke-linejoin="round"/><path d="M97.88 91.39c-8.52-.63-17.42-4.29-22.63-9.31-2.32-2.24-3.62-4.36-4.11-6.66a9.37 9.37 0 01-.04-2.73 9.16 9.16 0 012.69-4.72l.65-.65.53.24a46.5 46.5 0 006.17 2.2 45.96 45.96 0 0021.41.54c.86-.17 1.99-.48 2-.48.03 0-.67.42-1.04.72-3.02 2.42-5.46 6.17-6.25 9.58-.75 3.24.07 5.98 2.29 7.65 1.27.96 2.9 1.57 5.02 1.89.47.06 1.49.13 2.56.15l2.16-.11-1.1.42c-1.8.69-3.73 1.05-5.93 1.24-.76.07-3.6.08-4.38.03z" fill="#605675" stroke="#000" stroke-width=".1"/><path d="M92.9 68.28c-7.83-.32-12.34-1.14-14.1-2.55-1.69-1.35-.07-3.39 4.68-5.87 4.42-2.31 12.24-5.06 19.34-6.8 1.61-.39 3.6-.83 3.76-.83.04 0-.18.27-.48.61-2.59 2.84-3.75 5.33-3.65 7.8.05 1.04.24 1.79.72 2.77.78 1.6 2.06 3 3.98 4.33l.62.43-.69.05c-1.11.07-12.61.12-14.18.06z" fill="#c19dc6" stroke="#000" stroke-width=".1"/><path d="M32.9 43.83c.04-.13.67-.95.98-1.4.8-1.2 1.69-2.11 2.84-2.97.53-.4 1.03-.72 2.2-1.43 1.79-1.08 2.11-1.3 3.55-2.5l.95-.8 1.31-.25c3.74-.74 6.35-1.19 8.8-1.53 4.64-.64 9.09-.9 13.6-.8 1.04.03 2.78.02 2.78.03.02.02-1.32.08-2.51.14-7.15.35-11.13.92-15.58 2.2a63.82 63.82 0 00-14.26 6.36 77.21 77.21 0 00-4.67 2.95z" fill="#464155" stroke="#464155" stroke-width=".1" stroke-linecap="round" stroke-linejoin="round"/><path d="M45.35 33.22c.18-.18 1.94-1.53 3.38-2.6 13.42-9.98 25.92-15.28 37.75-16.01.7-.04 1.68-.07 2.2-.06l.93.02-1.35.95c-7.96 5.57-13.02 10.3-15.99 14.9l-.56.87-.7-.04a89.48 89.48 0 00-17.53.65c-2.18.3-6.92 1.11-8.05 1.38-.16.03-.17.03-.08-.06z" fill="#605675" stroke="#464155" stroke-width=".1" stroke-linecap="round" stroke-linejoin="round"/><path d="M83.8 51.15a82.1 82.1 0 01-1.7-.9l-.34-.2.86-1.32c4.3-6.59 7-10.19 10.26-13.7 4.87-5.23 10.38-8.83 16.55-10.82a43.98 43.98 0 0113.56-2c-.04.03-1.34.73-2.69 1.5-7.67 4.43-10.08 5.88-13.27 8-6.93 4.63-12.16 9.41-16.33 14.95-.83 1.1-1.94 2.7-2.52 3.63l-.4.63-1.28.47c-.7.26-1.29.46-1.3.46-.03 0-.65-.32-1.4-.7z" fill="#605675" stroke="#605675" stroke-width=".1" stroke-linecap="round" stroke-linejoin="round"/><path d="M73.8 61.58c0-.02 1.5-1.74 1.91-2.33.88-1.27 3.05-4.55 4.47-6.75l1-1.55.38.22c1.31.72 3.35 1.74 3.53 1.77.18.02.53-.09 1.75-.54l1.53-.57 3.91-.88c2.15-.49 4.16-1.06 4.17-1.05.02.02-.43 1.2-1.23 2.53-.17.29-1.2.41-2.85.88-6.3 1.8-8.65 2.59-11.2 3.68-2.1.9-4.23 2.1-5.62 3.15-.31.24-1.74 1.5-1.74 1.44z" fill="#454054" stroke="#464155" stroke-width=".1" stroke-linecap="round" stroke-linejoin="round"/><path d="M80.91 49.55c-1.79-1.1-3.1-2.1-4.15-3.15a12.2 12.2 0 01-3.74-9.12c0-1.03.2-3.01.32-3.35.12-.3 7.85-4.15 12.28-6.13 8.32-3.7 15.12-5.67 22.3-6.45 1.85-.2 7.65-.2 9.5 0 1.24.13 3.3.44 4.38.65l.52.1-1.4.05c-10.28.39-19.08 4.04-26.1 10.83-3.99 3.84-6.86 7.5-11.87 15.1a29.58 29.58 0 01-1.29 1.87c-.03.01-.37-.17-.75-.4z" fill="#c19dc6" stroke="#c19dc6" stroke-width=".1" stroke-linecap="round" stroke-linejoin="round"/><path d="M74.04 61.21c0-.02.08-.13.54-.79l.57-.82c.25-.37.63-1.16.79-1.63l.21-.82c0-.02-.04.23-.03.27.04.1.12.18.2.22.08.04.24.04.34 0a51.81 51.81 0 01-1.15 1.78c-.2.26-.5.65-1 1.24-.46.56-.55.7-.55.68z" fill="#8c7690" stroke="#8c7690" stroke-width=".1" stroke-linecap="square" paint-order="fill markers stroke"/><path d="M56.4 80.94a3.05 3.05 0 00-.3-.79l.16-.06a9.5 9.5 0 001.88-.92 9.38 9.38 0 01-1.75 1.77z" fill="#fff"/></svg>
