<svg xmlns="http://www.w3.org/2000/svg" xmlns:xlink="http://www.w3.org/1999/xlink" viewBox="0 0 256 256"><defs><path id="reuse-0" fill="#7abacf" stroke-width="1.89" d="M40.28 0h175.44A40.19 40.19 0 0 1 256 40.28V215.7a40.19 40.19 0 0 1-40.28 40.28H40.28A40.2 40.2 0 0 1 0 215.7V40.28A40.19 40.19 0 0 1 40.28 0z"/></defs><defs><clipPath id="a" clipPathUnits="userSpaceOnUse"><use xlink:href="#reuse-0" stroke-width="1.89"/></clipPath><filter id="b" width="3.74" height="2.15" x="-1.37" y="-.57" color-interpolation-filters="sRGB"><feGaussianBlur stdDeviation=".87"/></filter></defs><use xlink:href="#reuse-0"/><g clip-path="url(#a)"><path fill="#dbd08e" d="M88.82 92.6h56.69v37.78H88.8z"/><path fill="#47314b" d="m109.45 125.73-.81-.07a15.44 15.44 0 0 1-9.54-4.35c-2.84-2.87-4.48-6.95-4.92-12.24l-.07-1.06.13-.43a16.44 16.44 0 0 1 1.44-3.6c3.53-6.38 11.68-11.09 20.65-11.92a35.53 35.52 0 0 1 4.73.02c1.56.19 2.96.47 4.27.89.68.23.75.26 1.36.68 4.06 2.85 6.7 5.91 7.9 9.18 1.75 4.84.28 10.02-4.1 14.55a26.93 26.93 0 0 1-7.56 5.39 29 29 0 0 1-9.64 2.87c-.64.08-3.35.13-3.84.1z"/><path fill="#320504" d="M109.04 116.83c-8.19-1.58-8.38-11.94-.06-14.24a10.13 10.13 0 0 1 2.93 0 7.56 7.56 0 0 1 5.48 4.1 6.92 6.92 0 0 1-1.29 7.88 7.67 7.67 0 0 1-5.48 2.32c-.79.02-1.24 0-1.6-.06z"/><path d="M91.75 107.18c-.4 2.68-.91 5.25-.14 9.13 10.02 8.05 10.28-1.9 12.57-9.15 4.99 3.59 10.3 1.51 14.08 3.14 12.17 5.18 14.6 3.08 17.27-5.52 6.8 2.23 8.5-.04 9.26-3.1-8.47-22.18-37.51-12.43-53.04 5.48z" opacity=".35"/><path fill="#8c7690" d="M128.33 149c-.19 0-8.23 4.53-18.1 10.73l-8.2 4.96c.56 1.57 1.26 3.47 1.54 4.38-3.24-.74-8.52-1.03-11.7-2.5-27.83.56-33.28-4.1-45.31-12.4 7.7-5.38 17.86-9.29 26.12-8.96 10.96.3 20.12 6.08 31.15 6.73 5.37-.12 11.75-9 19.81-10.46 6.07-1.42.18-2.93-3.83-.7-5.74 2.8-11.03 9.13-16.87 9.29-6.52.19-18.28-5.57-28.56-6.6-11.33-.57-21.16 4.06-29.8 9.83l-6.08.3c-4.68-7.04-12.23-9.58-13.56-13.6-8.41-25.44 7.35-38.94 37.04-39.7 4.83.11 5.53-1.04 8.53-3.66 1.79-1.94.23-2.77-1.13-1.29-7.13 9.03-16.93-2.65-7.2-12.53C79.71 71.13 98 59.66 134.61 61.02c-2 3.89-2.1 4.27-1.74 4.92.98.73.92.22 3.6-1.06-2.68 17.27 6.96 25.75 16.93 31.25-2.84 4.67-11.57 18.78-13.93 20.23.62-3.95 6.77-6 2.5-17.25-17.17-13.25-40.57-1.36-52.77 12.84 14.07 23.5 35.9 16.85 47.85 6.74 15.76-16.56 42.52-17.81 62-23.62 6.18-2.07 12.06-5.23 15.63-6.79-1.08 1.3-7.75 6.02-12.8 10.4-87.93 26-52.94 30.36 3.19 30-17.33 9.22-44.57 7.96-64.4-1.47-25.25 30.87 44 51.8 66.85 42.5-15.35 13.01-71.29 9.2-79.2-20.71z"/><g filter="url(#b)" transform="scale(1.89)"><ellipse cx="47.89" cy="80.84" fill="#fff" rx=".81" ry="1.79" transform="matrix(.891 -.454 .14 .99 0 0)"/></g><path fill="none" stroke="#000" stroke-linejoin="round" stroke-width="1.89" d="M84.34 76.51c-8.26 9.03-12.51 18.69-7.15 28.68" style="mix-blend-mode:normal"/><path fill="#474257" d="M127.2 221.16c-.28-10.31 17.38-26.25 13.15-40.06-8.15-.38-16.23-3.3-21.79-5.88-5.07-2.55-10.32-4.32-14.99-6.15-.57-1.39-1.24-2.9-1.55-4.38.27-.23 21.8-13.63 26.31-15.7 10.1 19.31 24.12 22.55 39.29 25.75-8.03 11.18-11.26 25.8-9.02 38.22 5.94 19.72 20.52 31.34 48.2 43.74-19.95.12-35.44.2-57.23.4-5.07-15.13-22-22.42-22.37-35.94z"/><path fill="#605675" stroke="#464155" stroke-linecap="round" stroke-linejoin="round" stroke-width=".19" d="M84.84 63.2C97.89 48.78 141 22.45 172.63 26.53c-11.05 7.5-26.98 19.17-37.12 32.6C101.63 60.56 97 61.6 84.84 63.2z"/><g fill="none" stroke="#000" stroke-linejoin="round"><path stroke-linecap="round" d="M33.71 52.6c-5.81-1.23-2.76-8.27-1.2-8.88 2.62-5.03 5.79-5.5 8.73-7.85C60 20.02 76.56 13.31 91.35 14.04m0 0C76.83 23.8 72.8 29.55 70.7 34.58 87.53 25.8 104.38 17.1 124.32 22c-13.11 7.75-26.9 14.22-36.18 29.35l9.15-2.07-1.68 3.15c15.28-2.77 12.6-4.8 21.24-7.36-4.13 3.06-24.06 14.27-7.26 23.57-8.75-.59-22.67 22.86 1.16 20.52-2.63 5.02-16.27 4.7-22.19 3.79-14.14 25.47 7.79 37.9 23.03 43.24" transform="scale(1.89)"/><path d="M39.58 136.65c-2.69-6.05-2.61-12.3 1.43-19.05 3.85-7.08 7.93-10.75 12.1-16.22 3.59-7.42-1.2-12.63-5.52-12.84-16.9-.1-15.49-2.52-23.88-6.9l-3.67.14c-1.64-3.36-6.65-5.08-7.66-8.84C7.36 54.24 27.13 52.58 33.7 52.6c1.6 0 3.15-1.51 3.96-2.65" transform="scale(1.89)"/></g><path fill="none" stroke="#000" stroke-linejoin="round" stroke-width="1.89" d="M44.8 154.29c29.24-20.09 42.62-3.48 58.27-3.3 7.42.07 16.12-12.42 23.24-10.35"/><path fill="none" stroke="#000" stroke-linejoin="round" stroke-width="1.89" d="M104.56 150.89a6.12 6.12 0 0 1 1.25 3.81 18.7 18.7 0 0 0 6.99-8.2m-22.26-40.36c1.32-5.3 4.44-10.45 15.2-15.21m-16.3 21.67c12.1-13.19 24.32-20.6 36.66-19.48M81.3 64.78c16.08-3.16 31.25-6.2 54.38-4.61m1.97 3.23c-3.9 20.95 9.18 28.74 23.32 35.71l5.59-2.08"/><path fill="#605675" stroke="#000" stroke-width=".19" d="M140.67 127.2c4.25 1.87 8.82 3.54 12.66 4.62 13.19 3.17 29.33 4.76 44.24.11-19.17 15.04-21.9 39.29 9.96 37.78-33.43 13.07-93.74-18.55-66.86-42.5z"/><path fill="#c19dc6" d="M102.62 188.42c2.86-8.45-.34-16.74-8.04-20.98 2.28.28 6.83 1.17 9 1.63 3.75 12.03 4.03 19.47-.25 26.32-2.16 4.13-13.76 13.53-17.9 19.3a48.72 48.72 0 0 0-8.44 22.27c-1.06 17.86.28 17.3-.21 20.14-.77.13-1.82-.35-2.14-1.18-11.98-30.79 23.83-55.24 27.98-67.5z"/><path fill="#605675" d="M81.31 220.7c4.77-8.97 10.22-12.74 18.37-21.01 8.97-9.71 6.86-19.76 3.9-30.62 13.44 4.14 19.91 10.6 36.77 12.03 4.94 14.53-13.12 29.81-13.15 40.06-.03 11.75 17.75 20.7 22.37 35.94-15.3.42-16.72-.44-36.5-.28l-36.3.28c-1.51-13.53-.07-27.74 4.54-36.4z"/><path fill="none" d="M167.35 175.64c-24.98-6.76-28.85-10.07-38.9-27.17l-26.16 16.27c18.3 49.2-33.01 28.36-25.51 92.36"/><path fill="#464155" stroke="#464155" stroke-linecap="round" stroke-linejoin="round" stroke-width=".19" d="M62.17 82.82c2.83-4.62 6.55-8.5 11.38-10.96a55.17 55.17 0 0 0 8.5-6.23c19.09-3.95 30.88-5.46 50.06-4.82-21 .56-43.53 5.95-61.13 16.44a145.9 145.9 0 0 0-8.83 5.57z"/><path fill="#605675" stroke="#605675" stroke-linecap="round" stroke-linejoin="round" stroke-width=".19" d="M154.25 94.5c26.83-44.73 49.35-51.83 78.17-52.53-12.57 8.12-46.37 22.05-66.54 54.25-1.62.6-3.24 1.2-4.88 1.76-2.27-1.1-4.33-2.2-6.75-3.48z"/><path fill="#454054" stroke="#464155" stroke-linecap="round" stroke-linejoin="round" stroke-width=".19" d="M139.46 116.36c5.4-6.37 10.18-14.12 13.95-20.23 2.4 1.38 4.9 2.74 7.39 3.9 4.77-2.28 14.32-3.68 21.46-5.74.04.04-.77 2.74-2.28 5.26-15.24 4.15-30.72 7.86-40.5 16.81z"/><path fill="#c19dc6" stroke="#c19dc6" stroke-linecap="round" stroke-linejoin="round" stroke-width=".19" d="M138.3 64.07c36.13-20.63 68.86-29.22 94.12-22.1l-3.91-.12c-19.43.74-36.06 7.64-49.33 20.47-11.7 11.92-17.02 21.2-24.93 32.18-13.81-7.82-17.63-16.4-15.95-30.43z"/><path fill="#fff" d="M106.58 152.95a5.76 5.76 0 0 0-.57-1.5l.3-.11a17.95 17.95 0 0 0 3.56-1.74 17.73 17.73 0 0 1-3.3 3.35z"/><path fill="#c19dc6" stroke="#000" stroke-width=".19" d="M175.56 129.02c-14.8-.6-23.32-2.15-26.65-4.82-3.2-2.55-.13-6.4 8.84-11.09 8.36-4.36 23.13-9.56 36.55-12.85 3.04-.73 6.8-1.56 7.1-1.56.09 0-.33.5-.9 1.15-5.07 6.17-8.8 13.2-5.54 19.97 1.48 3.02 3.9 5.67 7.52 8.18l1.17.82-1.3.09c-2.1.13-23.83.22-26.8.1z"/></g></svg>
