<svg xmlns="http://www.w3.org/2000/svg" viewBox="0 0 24 24"><defs/><path d="M12.5 0c-.15 0-.32 0-.48.02-4.23.33-3.1 4.81-3.17 6.3A5.41 5.41 0 017.8 9.34a14.92 14.92 0 00-2.72 4.52 5.36 5.36 0 00-.29 2.5.42.42 0 00-.1.13c-.27.26-.46.6-.67.84-.2.2-.48.26-.8.4-.3.13-.65.26-.86.68-.09.18-.14.39-.13.6 0 .2.03.4.05.53.06.4.12.73.04.97-.25.68-.28 1.15-.1 1.48.17.34.53.47.94.6.8.2 1.9.14 2.78.6.92.47 1.87.67 2.62.47.52-.11.97-.46 1.2-.94.6 0 1.24-.27 2.27-.34.7-.05 1.57.27 2.58.2.02.14.06.2.11.34.4.78 1.11 1.13 1.88 1.07a3.5 3.5 0 002.26-1.31c.63-.77 1.68-1.08 2.38-1.5.35-.2.63-.47.65-.85.02-.4-.27-.76-.71-1.38-.2-.3-.24-.71-.34-1.03-.09-.4-.19-.79-.5-1.05-.06-.06-.12-.07-.19-.14a.36.36 0 00-.19-.06 5.37 5.37 0 00-.17-3.7 12.22 12.22 0 00-2.18-3.47c-.8-1-1.58-1.96-1.56-3.37.03-2.15.24-6.13-3.54-6.14zm.53 3.4h.01c.22 0 .4.06.59.2.19.13.33.33.43.53.08.22.16.4.18.67.02.31-.02.46-.16.76-.06.12-.12.24-.21.34l-.57-.26.16-.18c.05-.13.08-.27.08-.4v-.02c0-.14-.01-.28-.06-.4-.04-.14-.1-.2-.18-.34-.08-.06-.17-.13-.27-.13h-.01c-.1 0-.18.03-.26.13a.8.8 0 00-.21.34c-.05.12-.08.26-.09.4l.02.28c-.2-.07-.44-.13-.6-.2-.02-.08-.02-.15-.02-.22-.01-.26.04-.53.15-.77.08-.22.23-.4.43-.53.17-.13.37-.2.59-.2zm-2.96.06h.03a.7.7 0 01.4.13c.15.13.27.3.35.47.09.2.14.4.15.67V5.08l-.08.02c-.16.06-.28.14-.4.2.02-.1.01-.2 0-.28 0-.13-.03-.2-.08-.33a.62.62 0 00-.16-.27.25.25 0 00-.19-.07h-.02c-.07.01-.13.04-.18.14a.55.55 0 00-.12.27c-.03.1-.03.21-.03.33.01.13.06.25.09.34.04.14.1.2.16.27l.03.03c-.07.05-.11.07-.17.13a.3.3 0 01-.13.07c-.1-.12-.2-.26-.28-.4-.1-.21-.14-.44-.15-.67a1.76 1.76 0 01.36-1.2c.13-.13.26-.2.42-.2zm1.37 1.7c.33 0 .73.07 1.22.4.3.2.52.28 1.05.48.41.13.43.32.44.57 0 .26-.46.8-1 1-.27.14-.5.34-.78.47-.27.14-.59.3-1 .27-.16 0-.31-.01-.46-.07a3.57 3.57 0 01-.32-.2c-.2-.13-.36-.33-.61-.46-.4-.25-.62-.52-.7-.72-.06-.26 0-.46.2-.6.22-.13.38-.27.48-.33l.18-.13c.17-.2.44-.47.84-.6.14-.04.3-.07.47-.07zm2.8 2.15c.36 1.42 1.2 3.48 1.74 4.47.29.53.85 1.66 1.1 3.02.16 0 .33.02.51.06.65-1.67-.54-3.47-1.09-3.97-.22-.2-.23-.33-.12-.33a5.87 5.87 0 011.65 2.76c.13.53.16 1.1.02 1.67.07.03.14.06.2.06 1.03.54 1.41.94 1.23 1.54v-.04h-.19c.15-.47-.18-.82-1.06-1.22-.92-.4-1.65-.33-1.77.47l-.02.13-.2.07c-.44.26-.67.66-.8 1.19-.13.53-.17 1.16-.2 1.87-.03.33-.18.84-.32 1.35-1.5 1.07-3.58 1.54-5.35.33-.11-.19-.25-.37-.4-.53a1.45 1.45 0 00-.28-.33c.18 0 .34-.03.46-.07a.61.61 0 00.32-.33c.1-.27 0-.7-.35-1.16a6.3 6.3 0 00-1.79-1.52c-.63-.4-.98-.87-1.15-1.4a3.11 3.11 0 01-.01-1.64A9.8 9.8 0 017.64 11c.1-.07.04.13-.41.97-.4.75-1.14 2.5-.12 3.85.04-.99.26-1.96.65-2.88.56-1.28 1.74-3.5 1.84-5.27.04.04.21.13.28.2.22.13.38.33.6.47.2.2.47.33.87.33h.11c.41 0 .73-.13 1-.26.29-.13.52-.33.74-.4.47-.14.84-.4 1.04-.7zm2.19 8.96c.04.6.34 1.24.88 1.38.59.13 1.43-.33 1.8-.77h.2c.32-.01.58 0 .85.26.21.2.3.54.4.88.08.4.15.78.4 1.07.49.53.64.9.64 1.14 0 .3-.32.46-.5.6-.6.44-1.75.7-2.46 1.57a3.1 3.1 0 01-2.04 1.19c-.66.05-1.24-.2-1.57-.9-.21-.4-.12-1.02.05-1.7.18-.66.43-1.33.46-1.9.04-.7.08-1.33.2-1.8.12-.47.3-.8.64-.99l.04-.02zm-10.8.05l.17.01c.37.06.7.34 1.02.75l.9 1.66c.25.54.76 1.07 1.2 1.65.43.6.77 1.13.73 1.57-.06.75-.48 1.15-1.12 1.3-.65.13-1.52 0-2.4-.47-.97-.54-2.12-.47-2.86-.6-.37-.07-.61-.2-.73-.4-.1-.2-.1-.6.13-1.23v-.01c.12-.33.03-.75-.03-1.12-.05-.4-.08-.7.05-.94.16-.33.4-.4.68-.53.3-.14.65-.2.92-.47.26-.27.45-.6.67-.84.2-.2.38-.34.66-.34zm7.16-9.07c-.44.2-.95.53-1.5.53-.53 0-.96-.26-1.27-.46l-.37-.34c-.17-.13-.15-.33-.08-.33.11.01.13.13.2.2.1.07.22.2.36.33.3.2.68.47 1.17.47.49 0 1.05-.27 1.4-.47l.65-.46c.16-.14.15-.27.28-.27.13.01.03.13-.15.33a8.1 8.1 0 01-.69.47zM11.7 5.67v-.02c0-.02.01-.05.03-.05.07-.05.18-.03.26 0 .06 0 .16.07.15.14 0 .04-.09.06-.14.06-.05 0-.09-.04-.14-.07-.05-.01-.14 0-.16-.06zm-.55 0c-.02.06-.11.05-.17.06-.04.03-.08.07-.14.07-.05 0-.13-.02-.13-.07-.01-.06.08-.13.15-.13.08-.03.18-.05.26 0 .01 0 .03.03.03.05v.02z"/></svg>