<svg version="1.1" viewBox="0 0 251 59" xmlns="http://www.w3.org/2000/svg"><path d="m1.91e-4 57.8h9.8v-25.6c0-5.04 3.31-8.7 8.03-8.7 4.57 0 7.4 2.87 7.4 7.52v26.7h9.53v-25.8c0-5 3.23-8.46 7.95-8.46 4.8 0 7.48 2.91 7.48 8.03v26.2h9.8v-28.6c0-8.35-5.39-13.9-13.6-13.9-6.02 0-11 3.23-13 8.39h-0.236c-1.54-5.35-5.75-8.39-11.7-8.39-5.67 0-10.1 3.19-11.9 8.03h-0.197v-7.24h-9.41v41.7zm81.5-6.73c-4.25 0-7.09-2.17-7.09-5.59 0-3.31 2.72-5.43 7.44-5.75l9.65-0.591v3.19c0 5.04-4.45 8.74-10 8.74zm-2.95 7.4c5.35 0 10.6-2.8 13-7.32h0.197v6.65h9.45v-28.7c0-8.39-6.73-13.9-17.1-13.9-10.6 0-17.3 5.59-17.7 13.4h9.09c0.63-3.46 3.58-5.71 8.23-5.71 4.84 0 7.8 2.52 7.8 6.89v2.99l-11 0.63c-10.2 0.63-15.9 5.08-15.9 12.5 0 7.52 5.87 12.6 13.9 12.6zm65.7-27.5c-0.669-8.78-7.48-15.7-18.5-15.7-12.1 0-20 8.39-20 21.7 0 13.5 7.87 21.7 20.1 21.7 10.5 0 17.7-6.14 18.5-15.5h-9.25c-0.905 4.72-4.13 7.56-9.09 7.56-6.22 0-10.2-5.04-10.2-13.8 0-8.58 3.98-13.8 10.2-13.8 5.24 0 8.35 3.35 9.13 7.8h9.25zm30.3-30.9c-16.6 0-27 11.3-27 29.4s10.4 29.3 27 29.3c16.5 0 26.9-11.3 26.9-29.3s-10.4-29.4-26.9-29.4zm0 8.66c10.1 0 16.6 8.03 16.6 20.7 0 12.6-6.46 20.7-16.6 20.7-10.2 0-16.6-8.03-16.6-20.7 0-12.7 6.42-20.7 16.6-20.7zm31.1 33.1c0.433 10.5 9.02 16.9 22.1 16.9 13.7 0 22.4-6.77 22.4-17.6 0-8.46-4.88-13.2-16.4-15.9l-6.54-1.5c-6.97-1.65-9.84-3.86-9.84-7.64 0-4.72 4.33-7.87 10.7-7.87 6.5 0 10.9 3.19 11.4 8.5h9.68c-0.236-10-8.5-16.8-21-16.8-12.4 0-21.1 6.81-21.1 16.9 0 8.11 4.96 13.1 15.4 15.6l7.36 1.73c7.17 1.69 10.1 4.05 10.1 8.15 0 4.72-4.76 8.11-11.6 8.11-6.93 0-12.2-3.43-12.8-8.66h-9.84z" stroke-width="1.01"/></svg>
